# xmcd
#
# Track frame offsets: 
#        150
#        28247
#        49327
#        60502
#        82045
#        103087
#        119130
#        133765
#        161302
#        172360
#        183892
#        204285
#        226500
#        241377
#
# Disc length: 3565 seconds
#
# Revision: 0
# Processed by: cddbd v1.5.2PL0 Copyright (c) Steve Scherf et al.
# Submitted via: ExactAudioCopyFreeDBPlugin 1.0
#
DISCID=c10deb0e
DTITLE=Rob Pearcy - Hats Off
DYEAR=1998
DGENRE=Bluegrass
TTITLE0=Lime Rock
TTITLE1=Kentucky Waltz
TTITLE2=Whiskey Before Breakfast
TTITLE3=I Don't Love Nobody
TTITLE4=I'll Be All Smiles Tonight
TTITLE5=Flop Eared Mule
TTITLE6=Katy Hill
TTITLE7=Festival Waltz
TTITLE8=Alabama Jubilee
TTITLE9=Flowers of Edinburg
TTITLE10=Midnight on the Water
TTITLE11=Grey Eagle
TTITLE12=Arkansas Travler
TTITLE13=Canadian Waltz
EXTD=
EXTT0=
EXTT1=
EXTT2=
EXTT3=
EXTT4=
EXTT5=
EXTT6=
EXTT7=
EXTT8=
EXTT9=
EXTT10=
EXTT11=
EXTT12=
EXTT13=
PLAYORDER=
